<?xml version="1.0" standalone="no"?>
<!DOCTYPE svg PUBLIC "-//W3C//DTD SVG 20010904//EN"
 "http://www.w3.org/TR/2001/REC-SVG-20010904/DTD/svg10.dtd">
<svg version="1.0" xmlns="http://www.w3.org/2000/svg"
 width="1138.000000pt" height="1072.000000pt" viewBox="0 0 1138.000000 1072.000000"
 preserveAspectRatio="xMidYMid meet">

<g transform="translate(0.000000,1072.000000) scale(0.100000,-0.100000)"
fill="#000000" stroke="none">
<path d="M1350 7222 c-14 -5 -13 -45 2 -60 7 -7 32 -12 56 -12 61 0 142 -41
194 -99 83 -93 77 52 79 -1731 2 -1457 1 -1589 -15 -1635 -59 -179 -144 -264
-310 -311 -61 -17 -99 -45 -79 -57 5 -3 213 -7 463 -8 l455 -4 3 23 c2 12 -3
24 -10 26 -116 31 -258 89 -258 105 0 4 -12 20 -28 36 -47 53 -74 105 -100
195 -14 49 -17 223 -21 1543 -4 818 -5 1487 -3 1487 15 0 42 -24 42 -36 0 -9
6 -28 14 -42 7 -15 21 -43 29 -62 32 -74 66 -148 96 -212 17 -37 31 -71 31
-74 0 -4 13 -35 29 -68 15 -34 35 -77 44 -96 19 -44 59 -132 104 -230 19 -41
44 -95 55 -120 11 -25 37 -81 58 -125 21 -44 41 -87 44 -95 3 -8 10 -22 15
-30 5 -8 18 -35 29 -60 28 -64 123 -268 190 -410 96 -204 149 -318 197 -425 7
-16 31 -68 53 -115 22 -47 50 -107 62 -135 13 -27 44 -95 70 -150 26 -55 61
-129 78 -165 16 -36 49 -105 72 -155 62 -132 85 -182 120 -260 17 -38 36 -77
41 -85 5 -8 12 -22 15 -30 3 -8 17 -37 29 -65 92 -199 96 -205 120 -211 40
-10 52 6 109 141 20 47 20 46 81 195 79 193 93 225 110 265 7 17 39 93 70 170
52 128 76 185 95 225 4 8 28 67 54 130 27 63 54 129 61 145 7 17 18 41 23 55
6 14 20 48 32 75 35 82 42 99 54 130 7 17 19 46 28 65 8 19 20 46 26 60 6 14
20 47 32 73 24 54 21 77 -9 77 -38 0 -70 -19 -84 -52 -9 -18 -29 -64 -46 -101
-17 -38 -31 -72 -31 -77 0 -5 -7 -21 -15 -37 -21 -41 -58 -126 -95 -218 -17
-44 -38 -93 -45 -110 -12 -27 -20 -45 -57 -135 -5 -14 -16 -38 -24 -53 -8 -16
-14 -35 -14 -42 0 -7 -6 -26 -14 -42 -7 -15 -20 -41 -27 -57 -21 -43 -37 -43
-55 1 -8 21 -30 70 -48 108 -19 39 -51 106 -71 150 -21 44 -57 121 -80 170
-23 50 -58 124 -78 165 -125 266 -132 282 -212 455 -54 118 -92 199 -140 300
-24 50 -55 117 -70 150 -15 33 -44 96 -65 140 -21 44 -50 107 -65 140 -15 33
-45 98 -67 145 -22 47 -49 105 -60 130 -32 70 -72 157 -116 250 -61 130 -112
240 -134 290 -11 25 -31 68 -43 95 -37 80 -80 175 -114 250 -18 39 -40 86 -49
105 l-18 35 -442 0 c-243 0 -446 -1 -452 -3z"/>
<path d="M4850 7224 c-25 -9 -64 -26 -80 -35 -8 -5 -25 -13 -36 -18 -22 -10
-56 -52 -86 -107 -41 -76 -30 -241 23 -347 5 -9 16 -39 25 -65 15 -45 29 -79
60 -149 16 -39 38 -88 52 -123 6 -14 20 -47 32 -75 12 -27 26 -61 32 -75 5
-14 16 -40 24 -57 8 -18 20 -48 28 -65 8 -18 19 -44 24 -58 6 -14 22 -51 36
-83 14 -31 38 -85 52 -120 25 -58 48 -112 79 -182 7 -16 27 -61 45 -100 18
-38 36 -79 40 -90 5 -11 22 -51 40 -90 32 -72 49 -111 68 -155 6 -14 24 -56
42 -95 34 -77 53 -118 74 -167 8 -18 26 -60 41 -93 15 -33 33 -75 41 -92 8
-18 20 -48 28 -65 8 -18 24 -54 35 -80 12 -27 30 -69 42 -95 11 -27 27 -63 35
-80 16 -37 37 -85 52 -123 6 -14 22 -51 36 -83 14 -31 37 -84 51 -117 14 -33
37 -86 51 -117 14 -32 30 -69 36 -83 15 -37 33 -78 63 -145 15 -33 34 -76 42
-95 20 -48 39 -91 97 -220 13 -30 32 -75 42 -100 40 -100 77 -137 110 -109 17
14 55 92 109 224 24 57 35 86 50 120 7 17 27 66 45 110 47 115 74 180 95 230
7 17 39 93 70 170 31 77 63 154 70 170 7 17 18 41 23 55 6 14 20 48 32 75 12
28 26 61 32 75 5 14 16 39 23 55 7 17 20 50 30 75 26 67 40 99 69 161 14 31
26 59 26 62 0 6 56 133 70 159 6 10 10 27 10 38 0 32 -64 28 -95 -6 -14 -15
-25 -31 -25 -36 0 -6 -7 -26 -16 -46 -23 -52 -58 -134 -82 -192 -6 -14 -20
-47 -32 -75 -12 -27 -26 -61 -31 -75 -6 -14 -17 -38 -25 -53 -8 -16 -14 -35
-14 -42 0 -7 -6 -26 -14 -42 -8 -15 -22 -46 -31 -68 -21 -53 -34 -83 -50 -120
-7 -16 -22 -52 -33 -80 -11 -27 -26 -50 -33 -50 -12 0 -61 90 -117 215 -11 25
-37 80 -56 123 -20 43 -36 80 -36 83 0 2 -14 34 -31 71 -34 74 -58 127 -90
201 -39 90 -46 107 -62 142 -8 19 -27 62 -42 95 -15 33 -33 75 -41 93 -8 17
-20 47 -28 65 -8 17 -21 48 -29 67 -8 19 -27 62 -41 95 -42 93 -67 151 -96
220 -29 69 -54 127 -96 220 -14 33 -33 76 -41 95 -15 36 -32 75 -57 133 -48
107 -70 156 -83 187 -8 19 -21 50 -29 68 -54 122 -66 151 -89 207 -22 53 -35
84 -50 120 -11 26 -20 50 -55 140 -46 119 -50 165 -21 223 38 74 106 118 199
130 55 7 57 8 57 37 l0 30 -350 2 c-192 1 -357 -1 -365 -3z"/>
<path d="M6300 7206 c0 -31 15 -42 68 -50 75 -11 148 -72 194 -161 22 -42 78
-164 116 -255 8 -19 18 -42 23 -51 4 -9 24 -56 44 -105 20 -49 48 -114 62
-144 24 -53 46 -104 62 -145 5 -11 18 -40 29 -65 11 -25 30 -67 42 -95 22 -52
28 -66 79 -178 17 -38 31 -70 31 -72 0 -4 37 -87 86 -195 14 -30 32 -70 40
-87 8 -18 20 -48 28 -65 8 -18 21 -49 29 -68 27 -64 68 -155 82 -183 8 -16 15
-33 15 -38 0 -4 12 -34 26 -66 14 -32 31 -71 38 -88 7 -16 21 -48 31 -70 20
-45 36 -83 58 -135 8 -19 27 -60 41 -91 14 -31 26 -59 26 -62 0 -3 14 -36 31
-74 17 -37 37 -84 45 -103 9 -19 19 -44 24 -55 5 -11 19 -45 33 -75 28 -61 64
-145 76 -175 5 -11 23 -50 40 -87 17 -37 31 -70 31 -72 0 -3 14 -35 31 -73 16
-37 35 -79 41 -93 27 -63 39 -90 68 -155 18 -38 43 -95 57 -125 26 -57 34 -75
78 -175 15 -33 33 -73 41 -89 8 -16 14 -34 14 -40 0 -26 51 -86 74 -86 37 0
52 23 125 205 5 11 16 40 26 65 9 25 23 59 30 75 7 17 32 77 55 135 22 58 48
118 56 133 7 16 14 35 14 42 0 7 6 26 14 42 8 15 22 46 31 68 9 22 20 49 24
60 5 11 16 40 26 65 9 25 23 59 30 75 7 17 38 93 70 170 31 77 62 154 69 170
35 80 31 72 111 265 26 63 53 129 60 145 8 17 21 48 30 70 9 22 20 49 25 60 4
11 22 56 40 100 18 44 39 96 47 115 8 19 18 44 23 55 4 11 22 56 40 100 18 44
39 96 47 115 8 19 18 44 23 55 4 11 21 54 38 95 76 189 124 307 131 325 5 11
16 40 26 65 10 25 21 54 26 65 4 11 22 56 39 100 17 44 37 94 45 110 7 17 39
93 70 170 56 137 140 315 154 325 4 3 24 28 44 57 44 61 117 128 161 148 73
33 110 45 140 45 17 0 42 7 54 16 24 16 30 54 10 54 -7 0 -222 0 -478 1 l-465
0 0 -28 c0 -26 3 -29 60 -38 132 -24 213 -78 255 -171 27 -62 28 -205 1 -282
-10 -29 -21 -55 -25 -59 -3 -3 -6 -13 -6 -21 0 -8 -7 -30 -16 -50 -8 -21 -21
-50 -28 -67 -8 -16 -21 -50 -31 -75 -10 -25 -21 -54 -26 -65 -4 -11 -22 -56
-39 -100 -17 -44 -37 -93 -45 -108 -8 -16 -15 -33 -15 -38 0 -4 -11 -32 -24
-61 -14 -29 -39 -89 -56 -133 -18 -44 -38 -93 -45 -110 -7 -16 -18 -41 -23
-55 -6 -14 -20 -47 -32 -75 -30 -72 -36 -85 -55 -135 -10 -25 -23 -58 -30 -75
-7 -16 -18 -41 -23 -55 -6 -14 -25 -61 -42 -105 -18 -44 -39 -96 -48 -115 -8
-19 -21 -48 -28 -65 -6 -16 -17 -41 -22 -55 -6 -14 -25 -61 -42 -105 -17 -44
-37 -93 -45 -110 -7 -16 -32 -77 -55 -135 -23 -58 -48 -118 -55 -135 -18 -40
-37 -86 -69 -170 -15 -38 -34 -83 -42 -98 -8 -16 -14 -36 -14 -46 0 -9 -4 -21
-9 -26 -5 -6 -13 -26 -18 -45 -7 -24 -16 -36 -30 -38 -22 -3 -37 22 -113 193
-10 22 -35 76 -55 120 -56 123 -67 148 -80 180 -7 17 -25 57 -40 90 -15 33
-33 74 -40 90 -7 17 -25 57 -40 90 -28 61 -37 83 -75 170 -12 28 -33 75 -47
105 -14 30 -28 64 -33 75 -5 11 -22 49 -38 85 -49 108 -79 172 -102 225 -12
28 -33 74 -46 103 -13 28 -35 76 -48 105 -13 28 -33 75 -45 102 -12 28 -27 61
-33 75 -6 14 -17 39 -24 55 -25 58 -53 121 -88 198 -20 43 -36 80 -36 82 0 2
-14 34 -31 72 -61 135 -67 149 -93 210 -14 35 -38 89 -52 120 -77 176 -88 217
-78 295 5 39 14 55 51 92 40 38 55 46 125 62 69 16 79 20 76 38 -3 21 -6 21
-620 24 l-618 2 0 -24z"/>
</g>
</svg>
